<svg
                xmlns="http://www.w3.org/2000/svg"
                fill="none"
                width="14px"
                height="14px"
                class="ReviewVerifiedBadge__StyledVerifiedBadge-sc-1l8zk7l-0 jqBsSb es-review-verified-badge-icon"
                ><path
                  fill="#197BFF"
                  d="M6.757.236a.35.35 0 0 1 .486 0l1.106 1.07a.35.35 0 0 0 .329.089l1.493-.375a.35.35 0 0 1 .422.244l.422 1.48a.35.35 0 0 0 .24.24l1.481.423a.35.35 0 0 1 .244.422l-.375 1.493a.35.35 0 0 0 .088.329l1.071 1.106a.35.35 0 0 1 0 .486l-1.07 1.106a.35.35 0 0 0-.089.329l.375 1.493a.35.35 0 0 1-.244.422l-1.48.422a.35.35 0 0 0-.24.24l-.423 1.481a.35.35 0 0 1-.422.244l-1.493-.375a.35.35 0 0 0-.329.088l-1.106 1.071a.35.35 0 0 1-.486 0l-1.106-1.07a.35.35 0 0 0-.329-.089l-1.493.375a.35.35 0 0 1-.422-.244l-.422-1.48a.35.35 0 0 0-.24-.24l-1.481-.423a.35.35 0 0 1-.244-.422l.375-1.493a.35.35 0 0 0-.088-.329L.236 7.243a.35.35 0 0 1 0-.486l1.07-1.106a.35.35 0 0 0 .089-.329L1.02 3.829a.35.35 0 0 1 .244-.422l1.48-.422a.35.35 0 0 0 .24-.24l.423-1.481a.35.35 0 0 1 .422-.244l1.493.375a.35.35 0 0 0 .329-.088L6.757.236Z"
                ></path><path
                  fill="#fff"
                  fill-rule="evenodd"
                  d="M9.065 4.85a.644.644 0 0 1 .899 0 .615.615 0 0 1 .053.823l-.053.059L6.48 9.15a.645.645 0 0 1-.84.052l-.06-.052-1.66-1.527a.616.616 0 0 1 0-.882.645.645 0 0 1 .84-.052l.06.052 1.21 1.086 3.034-2.978Z"
                  clip-rule="evenodd"></path>
                  </svg>