<?xml version="1.0" ?><!-- Uploaded to: SVG Repo, www.svgrepo.com, Generator: SVG Repo Mixer Tools -->
<svg fill="#000000" width="50px" height="50px" viewBox="0 0 512 512" data-name="Layer 1" id="Layer_1" xmlns="http://www.w3.org/2000/svg"><title/><path d="M392,294.54h0a135.56,135.56,0,0,0-39.15-95.39,8.36,8.36,0,0,0-.68-.79,8.47,8.47,0,0,0-.8-.68A135.54,135.54,0,0,0,256,158.52h0a135.54,135.54,0,0,0-95.38,39.16,7.36,7.36,0,0,0-1.48,1.47A135.56,135.56,0,0,0,120,294.54h0a135.55,135.55,0,0,0,39.15,95.38,8.36,8.36,0,0,0,.68.79,8.59,8.59,0,0,0,.8.69A135.57,135.57,0,0,0,256,430.55h0a135.57,135.57,0,0,0,95.38-39.15,7.78,7.78,0,0,0,1.48-1.48A135.55,135.55,0,0,0,392,294.54Zm-29.25,8h13a119.5,119.5,0,0,1-29.45,71l-9.14-9.13a8,8,0,0,0-11.31,11.31l9.13,9.13a119.45,119.45,0,0,1-71,29.46v-13a8,8,0,1,0-16,0v13a119.57,119.57,0,0,1-71-29.46l9.13-9.13a8,8,0,1,0-11.31-11.32l-9.14,9.14a119.5,119.5,0,0,1-29.45-71h13a8,8,0,0,0,0-16h-13a119.53,119.53,0,0,1,29.45-71l9.14,9.14a8,8,0,0,0,11.31-11.31L177,204.25a119.5,119.5,0,0,1,71-29.45v13a8,8,0,0,0,16,0v-13a119.5,119.5,0,0,1,71,29.45l-9.13,9.14a8,8,0,0,0,11.31,11.31l9.14-9.14a119.53,119.53,0,0,1,29.45,71h-13a8,8,0,0,0,0,16Zm26.52-110.17,25.66-25.65a8,8,0,0,0,0-11.32l-19.8-19.8a8,8,0,0,0-11.32,0l-25.65,25.65A167.15,167.15,0,0,0,278,128V99.77h20.67a8,8,0,0,0,8-8V57.45a8,8,0,0,0-8-8H213.33a8,8,0,0,0-8,8V91.77a8,8,0,0,0,8,8H234V128a167.11,167.11,0,0,0-80.17,33.28L128.18,135.6a8,8,0,0,0-11.32,0l-19.8,19.8a8,8,0,0,0,0,11.32l25.66,25.65A167.14,167.14,0,0,0,88,294.54c0,92.64,75.37,168,168,168s168-75.37,168-168A167.14,167.14,0,0,0,389.28,192.37Zm.2-39.8,8.49,8.49L378.9,180.11q-4.08-4.38-8.48-8.48ZM221.33,65.45h69.34V83.77H221.33ZM250,99.77h12v26.87c-2-.07-4-.12-6-.12s-4,0-6,.12ZM114,161.06l8.49-8.49,19.06,19.06q-4.4,4.1-8.49,8.48ZM256,446.55c-83.82,0-152-68.19-152-152s68.19-152,152-152,152,68.2,152,152S339.82,446.55,256,446.55ZM291.83,319a8,8,0,0,1-11.32,11.31L250.34,300.2h0c-.18-.18-.36-.38-.53-.58l-.22-.3-.24-.33c-.08-.12-.15-.24-.22-.36a3.14,3.14,0,0,1-.18-.31,2.64,2.64,0,0,1-.18-.38c-.06-.11-.11-.22-.16-.33s-.09-.25-.14-.37-.09-.24-.12-.37-.07-.25-.1-.37-.07-.26-.09-.39,0-.3-.07-.45,0-.21-.05-.32a7,7,0,0,1,0-.79V216.82a8,8,0,0,1,16,0v74.4Z"/></svg>